<svg width="17" height="17" viewBox="0 0 17 17" fill="none" xmlns="http://www.w3.org/2000/svg">
<path d="M6.98362 12.7508C6.88649 12.7505 6.79047 12.7302 6.70152 12.6912C6.61256 12.6522 6.53258 12.5953 6.46653 12.5241L3.02403 8.86204C2.89535 8.7249 2.82641 8.54226 2.83239 8.35429C2.83837 8.16633 2.91877 7.98843 3.05591 7.85975C3.19305 7.73106 3.37569 7.66213 3.56366 7.66811C3.75162 7.67408 3.92952 7.75449 4.0582 7.89162L6.97653 11.0012L12.9336 4.48454C12.9941 4.40926 13.0693 4.34713 13.1546 4.30198C13.24 4.25682 13.3336 4.22959 13.4299 4.22195C13.5261 4.21431 13.6229 4.22643 13.7143 4.25756C13.8057 4.28869 13.8898 4.33817 13.9613 4.40297C14.0329 4.46777 14.0905 4.54652 14.1305 4.63438C14.1705 4.72224 14.1922 4.81736 14.1941 4.91389C14.196 5.01042 14.1782 5.10632 14.1417 5.19572C14.1052 5.28511 14.0509 5.3661 13.982 5.43371L7.50778 12.517C7.44236 12.5895 7.36266 12.6477 7.27367 12.688C7.18469 12.7282 7.08835 12.7496 6.9907 12.7508H6.98362Z" fill="#231F20"/>
</svg>
