<svg width="36" height="36" viewBox="0 0 36 36" fill="none" xmlns="http://www.w3.org/2000/svg">
<path d="M13.8759 28.0663C12.2449 27.451 10.9246 26.2141 10.2042 24.6267C9.48388 23.0394 9.42238 21.2312 10.0332 19.5986L14.325 9.00808C14.8281 7.8528 15.7684 6.9439 16.9402 6.48033C18.1119 6.01676 19.4195 6.03627 20.5769 6.5346C21.7576 6.9805 22.7131 7.87667 23.2336 9.02639C23.7542 10.1761 23.7973 11.4854 23.3535 12.6669L19.0575 23.2678C18.7278 23.9569 18.1477 24.4942 17.4354 24.7703C16.7231 25.0464 15.9324 25.0404 15.2244 24.7535C14.5165 24.4666 13.9446 23.9204 13.6255 23.2264C13.3064 22.5323 13.264 21.7427 13.5071 21.0185L17.4697 11.2402C17.5816 10.9641 17.7987 10.7436 18.0731 10.6275C18.3475 10.5114 18.6569 10.509 18.933 10.6209C19.2092 10.7328 19.4296 10.9499 19.5458 11.2243C19.6619 11.4987 19.6643 11.8081 19.5524 12.0842L15.5898 21.8625C15.542 22.04 15.5609 22.2287 15.6427 22.3933C15.7245 22.5578 15.8637 22.6867 16.034 22.7558C16.2043 22.8248 16.394 22.8291 16.5673 22.768C16.7406 22.7068 16.8855 22.5844 16.9748 22.4238L21.2708 11.8229C21.488 11.1937 21.4484 10.5042 21.1605 9.90406C20.8726 9.30392 20.3596 8.84155 19.7329 8.61729C19.1275 8.3455 18.4395 8.32265 17.8174 8.55366C17.1953 8.78468 16.6889 9.25104 16.4077 9.85209L12.1159 20.4426C11.7286 21.5228 11.7852 22.7124 12.2733 23.751C12.7613 24.7896 13.6411 25.5924 14.7199 25.9836C15.7667 26.4537 16.9571 26.4899 18.0305 26.0841C19.1039 25.6783 19.9727 24.8637 20.4467 23.8186L24.7384 13.2281C24.8504 12.9519 25.0674 12.7315 25.3419 12.6154C25.6163 12.4992 25.9256 12.4969 26.2018 12.6088C26.478 12.7207 26.6984 12.9378 26.8145 13.2122C26.9307 13.4866 26.9331 13.7959 26.8211 14.0721L22.5294 24.6626C21.8313 26.2599 20.5283 27.5151 18.9062 28.1532C17.284 28.7912 15.475 28.76 13.8759 28.0663Z" fill="#929292"/>
</svg>
