<svg width="26" height="26" viewBox="0 0 26 26" fill="none" xmlns="http://www.w3.org/2000/svg">
<path d="M19.9985 21.0537H5.26162C4.98244 21.0537 4.7147 21.1646 4.51729 21.362C4.31989 21.5594 4.20898 21.8272 4.20898 22.1063C4.20898 22.3855 4.31989 22.6533 4.51729 22.8507C4.7147 23.0481 4.98244 23.159 5.26162 23.159H19.9985C20.2776 23.159 20.5454 23.0481 20.7428 22.8507C20.9402 22.6533 21.0511 22.3855 21.0511 22.1063C21.0511 21.8272 20.9402 21.5594 20.7428 21.362C20.5454 21.1646 20.2776 21.0537 19.9985 21.0537Z" fill="#5F5F5F"/>
<path d="M5.26213 18.9483H5.35687L9.74634 18.5483C10.2272 18.5004 10.6769 18.2885 11.02 17.9483L20.4937 8.47461C20.8614 8.08616 21.0601 7.56778 21.0463 7.03307C21.0325 6.49836 20.8073 5.99094 20.42 5.62198L17.5358 2.73777C17.1594 2.38419 16.6661 2.18131 16.1498 2.16772C15.6336 2.15414 15.1303 2.33079 14.7358 2.66409L5.26213 12.1378C4.92189 12.4809 4.71003 12.9306 4.66213 13.4115L4.2095 17.8009C4.19532 17.9551 4.21533 18.1105 4.26809 18.2561C4.32086 18.4016 4.40508 18.5338 4.51477 18.643C4.61312 18.7406 4.72977 18.8178 4.85802 18.8702C4.98627 18.9225 5.1236 18.9491 5.26213 18.9483ZM16.0727 4.21146L18.9463 7.08514L16.8411 9.13777L14.02 6.31672L16.0727 4.21146ZM6.70424 13.5904L12.6306 7.70619L15.4727 10.5483L9.57792 16.443L6.42003 16.7378L6.70424 13.5904Z" fill="#5F5F5F"/>
</svg>
