<svg width="25" height="24" viewBox="0 0 25 24" fill="none" xmlns="http://www.w3.org/2000/svg">
<path d="M19.2187 23.3754C19.0254 23.3762 18.8348 23.3306 18.6628 23.2425L12.5003 20.0162L6.33782 23.2425C6.13772 23.3477 5.9121 23.3947 5.68662 23.3781C5.46115 23.3615 5.24486 23.2819 5.06234 23.1485C4.87982 23.0151 4.7384 22.8331 4.65415 22.6233C4.5699 22.4135 4.5462 22.1843 4.58574 21.9617L5.79407 15.1587L0.81574 10.3254C0.660418 10.1704 0.550235 9.97604 0.497015 9.76316C0.443796 9.55029 0.449549 9.32693 0.513657 9.11707C0.583692 8.90232 0.71252 8.7115 0.885522 8.56627C1.05852 8.42103 1.26877 8.3272 1.49241 8.29541L8.37991 7.29249L11.4128 1.09374C11.5118 0.889448 11.6663 0.717156 11.8586 0.596602C12.0509 0.476049 12.2733 0.412109 12.5003 0.412109C12.7273 0.412109 12.9497 0.476049 13.1421 0.596602C13.3344 0.717156 13.4889 0.889448 13.5878 1.09374L16.657 7.28041L23.5445 8.28333C23.7681 8.31511 23.9784 8.40895 24.1514 8.55418C24.3244 8.69942 24.4532 8.89024 24.5232 9.10499C24.5873 9.31485 24.5931 9.5382 24.5399 9.75108C24.4867 9.96396 24.3765 10.1583 24.2212 10.3133L19.2428 15.1467L20.4512 21.9496C20.4943 22.1761 20.4717 22.4103 20.3861 22.6244C20.3004 22.8385 20.1553 23.0236 19.9678 23.1579C19.749 23.3112 19.4856 23.3877 19.2187 23.3754ZM12.5003 17.4546C12.694 17.4497 12.8856 17.4955 13.0562 17.5875L17.6116 20.0042L16.7416 14.9171C16.7078 14.7228 16.7221 14.5233 16.7832 14.3358C16.8443 14.1484 16.9503 13.9787 17.092 13.8417L20.717 10.3012L15.642 9.55208C15.4559 9.51461 15.2812 9.43382 15.1322 9.31625C14.9831 9.19869 14.8639 9.04766 14.7841 8.87541L12.5003 4.34416L10.2166 8.87541C10.1291 9.04905 10.0011 9.19904 9.84335 9.31263C9.68558 9.42622 9.50273 9.50007 9.31032 9.52791L4.23532 10.2771L7.86032 13.8175C8.00203 13.9546 8.10805 14.1242 8.16913 14.3117C8.23021 14.4991 8.24449 14.6987 8.21074 14.8929L7.34074 19.9196L11.8962 17.5029C12.0892 17.4311 12.2983 17.4144 12.5003 17.4546Z" fill="#A8A8A8"/>
</svg>
