<svg width="15" height="15" viewBox="0 0 15 15" fill="none" xmlns="http://www.w3.org/2000/svg">
<path d="M6.59759 7.25279C6.96106 7.25279 7.25572 6.95813 7.25572 6.59466C7.25572 6.23118 6.96106 5.93652 6.59759 5.93652C6.23411 5.93652 5.93945 6.23118 5.93945 6.59466C5.93945 6.95813 6.23411 7.25279 6.59759 7.25279Z" fill="#E14192"/>
<path d="M9.2304 7.25279C9.59388 7.25279 9.88853 6.95813 9.88853 6.59466C9.88853 6.23118 9.59388 5.93652 9.2304 5.93652C8.86692 5.93652 8.57227 6.23118 8.57227 6.59466C8.57227 6.95813 8.86692 7.25279 9.2304 7.25279Z" fill="#E14192"/>
<path d="M3.96477 7.25279C4.32825 7.25279 4.62291 6.95813 4.62291 6.59466C4.62291 6.23118 4.32825 5.93652 3.96477 5.93652C3.6013 5.93652 3.30664 6.23118 3.30664 6.59466C3.30664 6.95813 3.6013 7.25279 3.96477 7.25279Z" fill="#E14192"/>
<path d="M11.2502 1.94281C10.1703 0.8559 8.74507 0.179807 7.22017 0.0310881C5.69526 -0.117631 4.16625 0.270343 2.89673 1.12812C1.62721 1.98591 0.696753 3.25974 0.26576 4.73001C-0.165233 6.20028 -0.0697495 7.77486 0.53575 9.18228C0.598859 9.31309 0.619565 9.46034 0.594982 9.60349L0.0158241 12.3874C-0.0064891 12.4941 -0.0019327 12.6047 0.0290839 12.7093C0.0601006 12.8138 0.116605 12.909 0.19352 12.9863C0.256572 13.0489 0.331645 13.0981 0.414215 13.1309C0.496784 13.1637 0.58514 13.1794 0.673958 13.1772H0.805585L3.6224 12.6112C3.76556 12.5939 3.91074 12.6144 4.0436 12.6704C5.45102 13.2759 7.0256 13.3714 8.49587 12.9404C9.96614 12.5094 11.24 11.5789 12.0978 10.3094C12.9555 9.03989 13.3435 7.51088 13.1948 5.98597C13.0461 4.46107 12.37 3.03583 11.2831 1.95597L11.2502 1.94281ZM11.7964 7.44481C11.6677 8.23061 11.3625 8.97698 10.9037 9.62777C10.4449 10.2786 9.84442 10.8168 9.14753 11.202C8.45063 11.5872 7.67545 11.8093 6.8803 11.8516C6.08516 11.8939 5.29078 11.7553 4.55695 11.4463C4.29668 11.3356 4.0171 11.2774 3.73428 11.2751C3.61073 11.276 3.48747 11.287 3.36573 11.3081L1.50979 11.6832L1.88492 9.82725C1.95964 9.42531 1.91147 9.01018 1.74672 8.63603C1.43765 7.90219 1.29906 7.10781 1.34137 6.31267C1.38368 5.51753 1.60578 4.74234 1.99098 4.04545C2.37617 3.34855 2.91442 2.7481 3.5652 2.28928C4.21599 1.83046 4.96237 1.52523 5.74817 1.39656C6.57299 1.26119 7.41819 1.32414 8.21385 1.58022C9.00952 1.83629 9.73278 2.27812 10.3238 2.86915C10.9149 3.46019 11.3567 4.18346 11.6128 4.97912C11.8688 5.77479 11.9318 6.61999 11.7964 7.44481Z" fill="#E14192"/>
</svg>
