<svg width="29" height="30" viewBox="0 0 29 30" fill="none" xmlns="http://www.w3.org/2000/svg">
<path d="M21.4018 4.32422H7.13348C6.18743 4.32422 5.28013 4.70003 4.61118 5.36899C3.94222 6.03795 3.56641 6.94524 3.56641 7.89129V22.1596C3.56641 23.1056 3.94222 24.0129 4.61118 24.6819C5.28013 25.3508 6.18743 25.7267 7.13348 25.7267H21.4018C22.3478 25.7267 23.2551 25.3508 23.9241 24.6819C24.593 24.0129 24.9688 23.1056 24.9688 22.1596V7.89129C24.9688 6.94524 24.593 6.03795 23.9241 5.36899C23.2551 4.70003 22.3478 4.32422 21.4018 4.32422ZM7.13348 6.70227H21.4018C21.7171 6.70227 22.0196 6.82754 22.2425 7.05052C22.4655 7.27351 22.5908 7.57594 22.5908 7.89129V17.8315L18.7859 14.5855C18.1964 14.1004 17.4567 13.8352 16.6932 13.8352C15.9298 13.8352 15.1901 14.1004 14.6005 14.5855L5.94445 21.8029V7.89129C5.94445 7.57594 6.06973 7.27351 6.29271 7.05052C6.5157 6.82754 6.81813 6.70227 7.13348 6.70227ZM21.4018 23.3486H7.79933L16.1225 16.4047C16.2824 16.286 16.4762 16.2219 16.6754 16.2219C16.8745 16.2219 17.0684 16.286 17.2283 16.4047L22.5908 20.9706V22.1596C22.5908 22.4749 22.4655 22.7774 22.2425 23.0003C22.0196 23.2233 21.7171 23.3486 21.4018 23.3486Z" fill="#929292"/>
<path d="M9.51205 12.6481C10.4971 12.6481 11.2956 11.8496 11.2956 10.8646C11.2956 9.87957 10.4971 9.08105 9.51205 9.08105C8.52703 9.08105 7.72852 9.87957 7.72852 10.8646C7.72852 11.8496 8.52703 12.6481 9.51205 12.6481Z" fill="#929292"/>
</svg>
