<svg width="28" height="28" viewBox="0 0 28 28" fill="none" xmlns="http://www.w3.org/2000/svg">
<path d="M25.2702 4.95807C25.038 4.75414 24.7343 4.65065 24.4259 4.67034C24.1175 4.69003 23.8295 4.83127 23.6252 5.06307L21.4435 7.57141L20.7085 6.74307C20.5027 6.51101 20.2132 6.37019 19.9036 6.35159C19.594 6.33299 19.2897 6.43814 19.0576 6.64391C18.8256 6.84967 18.6848 7.13919 18.6662 7.44879C18.6476 7.75838 18.7527 8.06268 18.9585 8.29474L20.5802 10.1147C20.6905 10.2371 20.8256 10.3346 20.9764 10.401C21.1272 10.4673 21.2904 10.501 21.4552 10.4997C21.6188 10.4979 21.7803 10.4616 21.929 10.3933C22.0778 10.3249 22.2105 10.2261 22.3185 10.1031L25.3635 6.60307C25.5688 6.37237 25.6743 6.06965 25.6568 5.76128C25.6394 5.45291 25.5003 5.16407 25.2702 4.95807Z" fill="#706F6F"/>
<path d="M11.6667 12.8333C12.5896 12.8333 13.4919 12.5596 14.2593 12.0469C15.0268 11.5341 15.6249 10.8052 15.9781 9.95253C16.3313 9.0998 16.4237 8.16149 16.2437 7.25625C16.0636 6.351 15.6191 5.51948 14.9665 4.86684C14.3139 4.21419 13.4823 3.76974 12.5771 3.58967C11.6718 3.40961 10.7335 3.50202 9.88081 3.85523C9.02809 4.20844 8.29925 4.80658 7.78648 5.57401C7.2737 6.34144 7 7.24369 7 8.16667C7 9.40435 7.49167 10.5913 8.36683 11.4665C9.242 12.3417 10.429 12.8333 11.6667 12.8333ZM11.6667 5.83334C12.1282 5.83334 12.5793 5.97018 12.963 6.22657C13.3467 6.48296 13.6458 6.84738 13.8224 7.27374C13.999 7.7001 14.0452 8.16926 13.9552 8.62188C13.8651 9.0745 13.6429 9.49026 13.3166 9.81658C12.9903 10.1429 12.5745 10.3651 12.1219 10.4552C11.6693 10.5452 11.2001 10.499 10.7737 10.3224C10.3474 10.1458 9.98296 9.84671 9.72657 9.463C9.47018 9.07928 9.33333 8.62816 9.33333 8.16667C9.33333 7.54783 9.57917 6.95434 10.0168 6.51675C10.4543 6.07917 11.0478 5.83334 11.6667 5.83334Z" fill="#706F6F"/>
<path d="M11.6667 15.167C9.50073 15.167 7.42351 16.0274 5.89196 17.559C4.36041 19.0905 3.5 21.1677 3.5 23.3337C3.5 23.6431 3.62292 23.9398 3.84171 24.1586C4.0605 24.3774 4.35725 24.5003 4.66667 24.5003C4.97609 24.5003 5.27283 24.3774 5.49162 24.1586C5.71042 23.9398 5.83333 23.6431 5.83333 23.3337C5.83333 21.7866 6.44791 20.3028 7.54188 19.2089C8.63584 18.1149 10.1196 17.5003 11.6667 17.5003C13.2138 17.5003 14.6975 18.1149 15.7915 19.2089C16.8854 20.3028 17.5 21.7866 17.5 23.3337C17.5 23.6431 17.6229 23.9398 17.8417 24.1586C18.0605 24.3774 18.3572 24.5003 18.6667 24.5003C18.9761 24.5003 19.2728 24.3774 19.4916 24.1586C19.7104 23.9398 19.8333 23.6431 19.8333 23.3337C19.8333 21.1677 18.9729 19.0905 17.4414 17.559C15.9098 16.0274 13.8326 15.167 11.6667 15.167Z" fill="#706F6F"/>
</svg>
