<svg width="28" height="28" viewBox="0 0 28 28" fill="none" xmlns="http://www.w3.org/2000/svg">
<path d="M23.2005 12.7595C22.8928 12.7595 22.5978 12.8817 22.3802 13.0992C22.1627 13.3168 22.0405 13.6118 22.0405 13.9195V20.8795C22.0405 21.1871 21.9183 21.4822 21.7007 21.6997C21.4832 21.9173 21.1881 22.0395 20.8805 22.0395H6.96047C6.65282 22.0395 6.35777 21.9173 6.14023 21.6997C5.92268 21.4822 5.80047 21.1871 5.80047 20.8795V6.95949C5.80047 6.65184 5.92268 6.35679 6.14023 6.13925C6.35777 5.92171 6.65282 5.79949 6.96047 5.79949H13.9205C14.2281 5.79949 14.5232 5.67728 14.7407 5.45974C14.9583 5.24219 15.0805 4.94714 15.0805 4.63949C15.0805 4.33184 14.9583 4.03679 14.7407 3.81925C14.5232 3.60171 14.2281 3.47949 13.9205 3.47949H6.96047C6.03752 3.47949 5.15236 3.84613 4.49974 4.49876C3.84711 5.15139 3.48047 6.03654 3.48047 6.95949V20.8795C3.48047 21.8024 3.84711 22.6876 4.49974 23.3402C5.15236 23.9929 6.03752 24.3595 6.96047 24.3595H20.8805C21.8034 24.3595 22.6886 23.9929 23.3412 23.3402C23.9938 22.6876 24.3605 21.8024 24.3605 20.8795V13.9195C24.3605 13.6118 24.2383 13.3168 24.0207 13.0992C23.8032 12.8817 23.5081 12.7595 23.2005 12.7595Z" fill="#706F6F"/>
<path d="M18.5606 5.79949H20.3934L13.097 13.0843C12.9883 13.1921 12.902 13.3204 12.8431 13.4618C12.7842 13.6031 12.7539 13.7548 12.7539 13.9079C12.7539 14.061 12.7842 14.2126 12.8431 14.354C12.902 14.4954 12.9883 14.6237 13.097 14.7315C13.2049 14.8402 13.3332 14.9265 13.4745 14.9854C13.6159 15.0443 13.7675 15.0746 13.9206 15.0746C14.0738 15.0746 14.2254 15.0443 14.3667 14.9854C14.5081 14.9265 14.6364 14.8402 14.7442 14.7315L22.0406 7.44669V9.27949C22.0406 9.58714 22.1628 9.88219 22.3804 10.0997C22.5979 10.3173 22.893 10.4395 23.2006 10.4395C23.5083 10.4395 23.8033 10.3173 24.0209 10.0997C24.2384 9.88219 24.3606 9.58714 24.3606 9.27949V4.63949C24.3606 4.33184 24.2384 4.03679 24.0209 3.81925C23.8033 3.60171 23.5083 3.47949 23.2006 3.47949H18.5606C18.253 3.47949 17.9579 3.60171 17.7404 3.81925C17.5228 4.03679 17.4006 4.33184 17.4006 4.63949C17.4006 4.94714 17.5228 5.24219 17.7404 5.45974C17.9579 5.67728 18.253 5.79949 18.5606 5.79949Z" fill="#706F6F"/>
</svg>
