<svg width="30" height="30" viewBox="0 0 30 30" fill="none" xmlns="http://www.w3.org/2000/svg">
<path d="M9.9999 12.5H21.1499L17.7749 8.27502C17.6561 8.14915 17.5647 7.99997 17.5065 7.83694C17.4484 7.67391 17.4247 7.50058 17.4371 7.32792C17.4494 7.15527 17.4975 6.98706 17.5782 6.83395C17.6589 6.68084 17.7706 6.54617 17.9061 6.43846C18.0416 6.33076 18.198 6.25237 18.3654 6.20826C18.5327 6.16415 18.7075 6.15528 18.8784 6.18222C19.0494 6.20916 19.2129 6.27132 19.3587 6.36476C19.5044 6.45819 19.6291 6.58087 19.7249 6.72502L24.7249 12.975C24.8993 13.1957 24.9941 13.4688 24.9941 13.75C24.9941 14.0313 24.8993 14.3043 24.7249 14.525L19.7249 20.775C19.6085 20.9223 19.4604 21.0415 19.2916 21.1238C19.1228 21.206 18.9377 21.2492 18.7499 21.25C18.4679 21.2484 18.1948 21.1515 17.9749 20.975C17.7173 20.7688 17.5518 20.4691 17.5143 20.1412C17.4768 19.8134 17.5705 19.4841 17.7749 19.225L21.1499 15H9.9999C9.66837 15 9.35043 15.1317 9.11601 15.3661C8.88159 15.6006 8.7499 15.9185 8.7499 16.25V22.5C8.7499 22.8315 8.6182 23.1495 8.38378 23.3839C8.14936 23.6183 7.83142 23.75 7.4999 23.75C7.16838 23.75 6.85043 23.6183 6.61601 23.3839C6.38159 23.1495 6.2499 22.8315 6.2499 22.5V16.25C6.2499 15.2555 6.64498 14.3016 7.34824 13.5984C8.05151 12.8951 9.00533 12.5 9.9999 12.5Z" fill="#231F20"/>
</svg>
