<svg width="28" height="28" viewBox="0 0 28 28" fill="none" xmlns="http://www.w3.org/2000/svg">
<path d="M13.939 15.1663C14.5805 15.1663 15.1006 14.644 15.1006 13.9997C15.1006 13.3553 14.5805 12.833 13.939 12.833C13.2974 12.833 12.7773 13.3553 12.7773 13.9997C12.7773 14.644 13.2974 15.1663 13.939 15.1663Z" fill="#706F6F"/>
<path d="M18.5854 15.1663C19.227 15.1663 19.7471 14.644 19.7471 13.9997C19.7471 13.3553 19.227 12.833 18.5854 12.833C17.9439 12.833 17.4238 13.3553 17.4238 13.9997C17.4238 14.644 17.9439 15.1663 18.5854 15.1663Z" fill="#706F6F"/>
<path d="M9.29248 15.1663C9.93403 15.1663 10.4541 14.644 10.4541 13.9997C10.4541 13.3553 9.93403 12.833 9.29248 12.833C8.65094 12.833 8.13086 13.3553 8.13086 13.9997C8.13086 14.644 8.65094 15.1663 9.29248 15.1663Z" fill="#706F6F"/>
<path d="M22.1517 5.75064C20.2458 3.82389 17.7302 2.62538 15.0387 2.36175C12.3472 2.09812 9.64844 2.78588 7.40772 4.30645C5.16699 5.82703 3.52471 8.08514 2.76399 10.6915C2.00328 13.2978 2.17181 16.0891 3.24053 18.584C3.35192 18.8159 3.38847 19.0769 3.34508 19.3306L2.32285 24.2656C2.28347 24.4548 2.29151 24.6509 2.34626 24.8362C2.401 25.0215 2.50073 25.1903 2.63649 25.3273C2.74778 25.4383 2.88028 25.5254 3.02602 25.5836C3.17176 25.6417 3.32771 25.6696 3.48447 25.6656H3.7168L8.68854 24.6623C8.94123 24.6318 9.19747 24.668 9.43198 24.7673C11.9161 25.8407 14.6953 26.0099 17.2903 25.2459C19.8854 24.4819 22.1337 22.8325 23.6477 20.582C25.1618 18.3316 25.8465 15.6211 25.584 12.9179C25.3216 10.2147 24.1282 7.68822 22.2098 5.77397L22.1517 5.75064ZM23.1159 15.504C22.8888 16.8969 22.35 18.22 21.5402 19.3737C20.7304 20.5273 19.6706 21.4815 18.4405 22.1643C17.2105 22.8471 15.8423 23.2409 14.4388 23.3159C13.0354 23.3909 11.6333 23.1452 10.338 22.5973C9.87867 22.4011 9.3852 22.298 8.88601 22.294C8.66795 22.2955 8.45039 22.315 8.23551 22.3523L4.95973 23.0173L5.62186 19.7273C5.75373 19.0148 5.66872 18.2789 5.37792 17.6156C4.83241 16.3148 4.58779 14.9066 4.66247 13.497C4.73714 12.0875 5.12917 10.7133 5.80904 9.47796C6.48892 8.24258 7.43893 7.17817 8.58759 6.36483C9.73625 5.55149 11.0536 5.0104 12.4406 4.7823C13.8964 4.54234 15.3882 4.65394 16.7926 5.10787C18.1969 5.56181 19.4735 6.34503 20.5167 7.39276C21.5599 8.44049 22.3397 9.72261 22.7917 11.1331C23.2437 12.5435 23.3548 14.0418 23.1159 15.504Z" fill="#706F6F"/>
</svg>
