<svg width="28" height="28" viewBox="0 0 28 28" fill="none" xmlns="http://www.w3.org/2000/svg">
<path d="M25.5154 13.4164C24.7687 12.1214 20.6621 5.6231 13.6854 5.8331C7.23374 5.99644 3.50041 11.6664 2.48541 13.4164C2.38301 13.5938 2.3291 13.795 2.3291 13.9998C2.3291 14.2046 2.38301 14.4057 2.48541 14.5831C3.22041 15.8548 7.15207 22.1664 14.0237 22.1664H14.3154C20.7671 22.0031 24.5121 16.3331 25.5154 14.5831C25.6178 14.4057 25.6717 14.2046 25.6717 13.9998C25.6717 13.795 25.6178 13.5938 25.5154 13.4164ZM14.2571 19.8331C9.22874 19.9498 5.95041 15.6448 4.92374 13.9998C6.0904 12.1214 9.13541 8.2831 13.8021 8.16644C18.8071 8.0381 22.0971 12.3548 23.1354 13.9998C21.9337 15.8781 18.9237 19.7164 14.2571 19.8331Z" fill="#706F6F"/>
<path d="M14.0003 9.91602C13.1927 9.91602 12.4032 10.1555 11.7317 10.6042C11.0602 11.0529 10.5369 11.6906 10.2278 12.4367C9.91876 13.1829 9.8379 14.0039 9.99545 14.796C10.153 15.5881 10.5419 16.3156 11.113 16.8867C11.684 17.4578 12.4116 17.8467 13.2037 18.0042C13.9958 18.1618 14.8168 18.0809 15.563 17.7719C16.3091 17.4628 16.9468 16.9394 17.3955 16.2679C17.8442 15.5964 18.0837 14.807 18.0837 13.9993C18.0837 12.9164 17.6535 11.8778 16.8877 11.112C16.1219 10.3462 15.0833 9.91602 14.0003 9.91602ZM14.0003 15.7493C13.6542 15.7493 13.3159 15.6467 13.0281 15.4544C12.7403 15.2621 12.516 14.9888 12.3835 14.669C12.2511 14.3493 12.2164 13.9974 12.284 13.6579C12.3515 13.3185 12.5181 13.0067 12.7629 12.7619C13.0076 12.5172 13.3195 12.3505 13.6589 12.283C13.9984 12.2155 14.3503 12.2501 14.67 12.3826C14.9898 12.515 15.2631 12.7393 15.4554 13.0271C15.6477 13.3149 15.7503 13.6532 15.7503 13.9993C15.7503 14.4635 15.566 14.9086 15.2378 15.2368C14.9096 15.565 14.4645 15.7493 14.0003 15.7493Z" fill="#706F6F"/>
</svg>
