<svg width="43" height="43" viewBox="0 0 43 43" fill="none" xmlns="http://www.w3.org/2000/svg">
<path d="M21.5007 3.5835C17.9571 3.5835 14.4931 4.63429 11.5467 6.603C8.60031 8.57171 6.30389 11.3699 4.94782 14.6438C3.59175 17.9176 3.23694 21.52 3.92826 24.9955C4.61957 28.471 6.32597 31.6635 8.83166 34.1692C11.3374 36.6748 14.5298 38.3812 18.0053 39.0726C21.4808 39.7639 25.0832 39.4091 28.3571 38.053C31.6309 36.6969 34.4291 34.4005 36.3978 31.4541C38.3665 28.5077 39.4173 25.0437 39.4173 21.5002C39.4173 19.1473 38.9539 16.8175 38.0535 14.6438C37.1531 12.47 35.8334 10.4949 34.1697 8.83117C32.5059 7.16745 30.5308 5.84772 28.3571 4.94732C26.1833 4.04692 23.8535 3.5835 21.5007 3.5835ZM21.5007 35.8335C18.6658 35.8335 15.8946 34.9929 13.5375 33.4179C11.1804 31.8429 9.34324 29.6044 8.25839 26.9853C7.17353 24.3662 6.88968 21.4843 7.44274 18.7039C7.99579 15.9235 9.36091 13.3695 11.3655 11.365C13.37 9.36041 15.924 7.9953 18.7044 7.44224C21.4848 6.88919 24.3667 7.17303 26.9858 8.25789C29.6049 9.34275 31.8434 11.1799 33.4184 13.537C34.9934 15.8941 35.834 18.6653 35.834 21.5002C35.834 25.3016 34.3239 28.9473 31.6359 31.6354C28.9478 34.3234 25.3021 35.8335 21.5007 35.8335Z" fill="#7D7DFF"/>
<path d="M28.6673 19.7087H23.2923V14.3337C23.2923 13.8585 23.1036 13.4028 22.7676 13.0668C22.4315 12.7308 21.9758 12.542 21.5007 12.542C21.0255 12.542 20.5698 12.7308 20.2338 13.0668C19.8977 13.4028 19.709 13.8585 19.709 14.3337V21.5003C19.709 21.9755 19.8977 22.4312 20.2338 22.7672C20.5698 23.1032 21.0255 23.292 21.5007 23.292H28.6673C29.1425 23.292 29.5982 23.1032 29.9342 22.7672C30.2702 22.4312 30.459 21.9755 30.459 21.5003C30.459 21.0251 30.2702 20.5694 29.9342 20.2334C29.5982 19.8974 29.1425 19.7087 28.6673 19.7087Z" fill="#7D7DFF"/>
</svg>
