<svg width="42" height="42" viewBox="0 0 42 42" fill="none" xmlns="http://www.w3.org/2000/svg">
<path d="M21 3.5C20.5359 3.5 20.0908 3.68437 19.7626 4.01256C19.4344 4.34075 19.25 4.78587 19.25 5.25V8.75C19.25 9.21413 19.4344 9.65925 19.7626 9.98744C20.0908 10.3156 20.5359 10.5 21 10.5C21.4641 10.5 21.9092 10.3156 22.2374 9.98744C22.5656 9.65925 22.75 9.21413 22.75 8.75V5.25C22.75 4.78587 22.5656 4.34075 22.2374 4.01256C21.9092 3.68437 21.4641 3.5 21 3.5Z" fill="#7D7DFF"/>
<path d="M36.75 19.25H33.25C32.7859 19.25 32.3408 19.4344 32.0126 19.7626C31.6844 20.0908 31.5 20.5359 31.5 21C31.5 21.4641 31.6844 21.9092 32.0126 22.2374C32.3408 22.5656 32.7859 22.75 33.25 22.75H36.75C37.2141 22.75 37.6592 22.5656 37.9874 22.2374C38.3156 21.9092 38.5 21.4641 38.5 21C38.5 20.5359 38.3156 20.0908 37.9874 19.7626C37.6592 19.4344 37.2141 19.25 36.75 19.25Z" fill="#7D7DFF"/>
<path d="M10.5 21C10.5 20.5359 10.3156 20.0908 9.98744 19.7626C9.65925 19.4344 9.21413 19.25 8.75 19.25H5.25C4.78587 19.25 4.34075 19.4344 4.01256 19.7626C3.68437 20.0908 3.5 20.5359 3.5 21C3.5 21.4641 3.68437 21.9092 4.01256 22.2374C4.34075 22.5656 4.78587 22.75 5.25 22.75H8.75C9.21413 22.75 9.65925 22.5656 9.98744 22.2374C10.3156 21.9092 10.5 21.4641 10.5 21Z" fill="#7D7DFF"/>
<path d="M10.8849 8.75107C10.5438 8.4285 10.0885 8.25466 9.61917 8.26778C9.14986 8.28091 8.70498 8.47993 8.38242 8.82107C8.05985 9.1622 7.886 9.61751 7.89913 10.0868C7.91226 10.5561 8.11128 11.001 8.45241 11.3236L10.9724 13.7561C11.1415 13.9194 11.3418 14.0469 11.5613 14.1311C11.7808 14.2153 12.015 14.2544 12.2499 14.2461C12.4856 14.2452 12.7188 14.1966 12.9353 14.1034C13.1518 14.0102 13.3473 13.8742 13.5099 13.7036C13.8359 13.3757 14.0188 12.9321 14.0188 12.4698C14.0188 12.0075 13.8359 11.564 13.5099 11.2361L10.8849 8.75107Z" fill="#7D7DFF"/>
<path d="M29.7498 14.2443C30.2004 14.2425 30.6329 14.067 30.9573 13.7543L33.4773 11.3218C33.7847 11.0006 33.9584 10.5744 33.9629 10.1298C33.9675 9.68524 33.8027 9.25558 33.502 8.92811C33.2012 8.60064 32.7871 8.39992 32.3437 8.36671C31.9004 8.3335 31.461 8.4703 31.1148 8.74931L28.5948 11.2343C28.2689 11.5622 28.0859 12.0057 28.0859 12.4681C28.0859 12.9304 28.2689 13.3739 28.5948 13.7018C28.8978 14.0216 29.3103 14.2153 29.7498 14.2443Z" fill="#7D7DFF"/>
<path d="M21 31.5C20.5359 31.5 20.0908 31.6844 19.7626 32.0126C19.4344 32.3408 19.25 32.7859 19.25 33.25V36.75C19.25 37.2141 19.4344 37.6592 19.7626 37.9874C20.0908 38.3156 20.5359 38.5 21 38.5C21.4641 38.5 21.9092 38.3156 22.2374 37.9874C22.5656 37.6592 22.75 37.2141 22.75 36.75V33.25C22.75 32.7859 22.5656 32.3408 22.2374 32.0126C21.9092 31.6844 21.4641 31.5 21 31.5Z" fill="#7D7DFF"/>
<path d="M31.028 28.2452C30.6939 27.9226 30.2452 27.746 29.7809 27.7542C29.3165 27.7624 28.8744 27.9547 28.5518 28.2889C28.2292 28.6231 28.0526 29.0717 28.0608 29.5361C28.069 30.0005 28.2614 30.4426 28.5955 30.7652L31.1155 33.2502C31.44 33.5628 31.8725 33.7384 32.323 33.7402C32.5575 33.7415 32.7899 33.6958 33.0063 33.6056C33.2228 33.5154 33.4189 33.3826 33.583 33.2152C33.7471 33.0525 33.8773 32.8589 33.9661 32.6457C34.0549 32.4324 34.1007 32.2037 34.1007 31.9727C34.1007 31.7416 34.0549 31.5129 33.9661 31.2996C33.8773 31.0864 33.7471 30.8928 33.583 30.7302L31.028 28.2452Z" fill="#7D7DFF"/>
<path d="M10.9732 28.2454L8.45319 30.6779C8.28917 30.8406 8.15898 31.0341 8.07013 31.2474C7.98129 31.4606 7.93555 31.6894 7.93555 31.9204C7.93555 32.1514 7.98129 32.3801 8.07013 32.5934C8.15898 32.8066 8.28917 33.0002 8.45319 33.1629C8.61733 33.3303 8.81345 33.4631 9.0299 33.5533C9.24634 33.6435 9.47871 33.6893 9.71319 33.6879C10.1446 33.6916 10.5621 33.5358 10.8857 33.2504L13.4057 30.8179C13.7399 30.4953 13.9322 30.0532 13.9404 29.5888C13.9486 29.1244 13.772 28.6758 13.4494 28.3416C13.1269 28.0075 12.6848 27.8151 12.2204 27.8069C11.756 27.7987 11.3074 27.9753 10.9732 28.2979V28.2454Z" fill="#7D7DFF"/>
</svg>
