<svg width="42" height="42" viewBox="0 0 42 42" fill="none" xmlns="http://www.w3.org/2000/svg">
<path d="M20.6194 18.901C21.9788 18.901 23.3077 18.4979 24.438 17.7426C25.5684 16.9874 26.4493 15.9139 26.9696 14.6579C27.4898 13.402 27.6259 12.02 27.3607 10.6867C27.0955 9.35342 26.4409 8.12871 25.4796 7.16745C24.5184 6.2062 23.2936 5.55158 21.9603 5.28637C20.6271 5.02116 19.2451 5.15727 17.9891 5.6775C16.7332 6.19773 15.6597 7.0787 14.9045 8.20901C14.1492 9.33933 13.7461 10.6682 13.7461 12.0276C13.7461 13.8506 14.4702 15.5988 15.7592 16.8878C17.0482 18.1768 18.7965 18.901 20.6194 18.901ZM20.6194 8.59097C21.2991 8.59097 21.9636 8.79252 22.5287 9.17015C23.0939 9.54778 23.5344 10.0845 23.7945 10.7125C24.0546 11.3404 24.1227 12.0314 23.9901 12.6981C23.8575 13.3647 23.5301 13.9771 23.0495 14.4577C22.5689 14.9384 21.9565 15.2657 21.2899 15.3983C20.6232 15.5309 19.9322 15.4628 19.3043 15.2027C18.6763 14.9426 18.1396 14.5021 17.7619 13.9369C17.3843 13.3718 17.1828 12.7073 17.1828 12.0276C17.1828 11.1162 17.5448 10.242 18.1893 9.59754C18.8338 8.95304 19.708 8.59097 20.6194 8.59097Z" fill="#7D7DFF"/>
<path d="M20.6201 22.3374C17.43 22.3374 14.3706 23.6047 12.1148 25.8604C9.85906 28.1162 8.5918 31.1756 8.5918 34.3657C8.5918 34.8215 8.77284 35.2585 9.09509 35.5808C9.41734 35.903 9.8544 36.0841 10.3101 36.0841C10.7659 36.0841 11.2029 35.903 11.5252 35.5808C11.8474 35.2585 12.0285 34.8215 12.0285 34.3657C12.0285 32.0871 12.9337 29.9018 14.5449 28.2905C16.1562 26.6793 18.3415 25.7741 20.6201 25.7741C22.8988 25.7741 25.0841 26.6793 26.6954 28.2905C28.3066 29.9018 29.2118 32.0871 29.2118 34.3657C29.2118 34.8215 29.3928 35.2585 29.7151 35.5808C30.0373 35.903 30.4744 36.0841 30.9301 36.0841C31.3859 36.0841 31.8229 35.903 32.1452 35.5808C32.4674 35.2585 32.6485 34.8215 32.6485 34.3657C32.6485 31.1756 31.3812 28.1162 29.1254 25.8604C26.8697 23.6047 23.8102 22.3374 20.6201 22.3374Z" fill="#7D7DFF"/>
</svg>
