<svg width="110" height="110" viewBox="0 0 110 110" fill="none" xmlns="http://www.w3.org/2000/svg">
<circle cx="55" cy="55" r="53" stroke="#2B2B2B" stroke-width="4"/>
<path d="M54.9991 51.38C57.8617 51.38 60.66 50.5311 63.0402 48.9407C65.4204 47.3503 67.2755 45.0899 68.371 42.4451C69.4665 39.8004 69.7531 36.8903 69.1947 34.0826C68.6362 31.275 67.2577 28.696 65.2335 26.6719C63.2093 24.6477 60.6304 23.2692 57.8228 22.7107C55.0151 22.1523 52.105 22.4389 49.4602 23.5344C46.8155 24.6298 44.555 26.485 42.9646 28.8652C41.3743 31.2453 40.5254 34.0437 40.5254 36.9063C40.5254 40.745 42.0503 44.4264 44.7646 47.1407C47.479 49.8551 51.1604 51.38 54.9991 51.38Z" fill="#231F20"/>
<path d="M76.7094 87.5646C77.6691 87.5646 78.5894 87.1833 79.268 86.5047C79.9466 85.8262 80.3278 84.9058 80.3278 83.9461C80.3278 77.2285 77.6592 70.786 72.9091 66.0359C68.159 61.2858 61.7165 58.6172 54.9989 58.6172C48.2812 58.6172 41.8387 61.2858 37.0886 66.0359C32.3385 70.786 29.6699 77.2285 29.6699 83.9461C29.6699 84.9058 30.0511 85.8262 30.7297 86.5047C31.4083 87.1833 32.3287 87.5646 33.2883 87.5646H76.7094Z" fill="#231F20"/>
</svg>
