<svg width="44" height="44" viewBox="0 0 44 44" fill="none" xmlns="http://www.w3.org/2000/svg">
<path d="M29.943 11.1884C29.7565 11.0408 29.5426 10.9315 29.3136 10.8669C29.0847 10.8024 28.8452 10.7838 28.609 10.8123C28.3729 10.8407 28.1447 10.9157 27.9376 11.0328C27.7305 11.15 27.5487 11.3069 27.4027 11.4947L14.791 27.7097L8.61129 20.1787C8.46633 19.9858 8.28409 19.8239 8.07538 19.7028C7.86667 19.5816 7.63574 19.5036 7.39631 19.4734C7.15687 19.4432 6.91381 19.4614 6.68154 19.5269C6.44928 19.5925 6.23255 19.704 6.04422 19.8549C5.85588 20.0058 5.69979 20.193 5.5852 20.4054C5.47061 20.6178 5.39985 20.851 5.37714 21.0913C5.35442 21.3316 5.38021 21.5739 5.45297 21.804C5.52573 22.0341 5.64397 22.2473 5.80069 22.4308L13.3136 31.7634C13.4832 31.9725 13.6975 32.1409 13.9406 32.2562C14.1838 32.3716 14.4498 32.431 14.7189 32.4301C15.0046 32.4428 15.2893 32.3874 15.5493 32.2683C15.8093 32.1493 16.0373 31.97 16.2143 31.7454L30.3214 13.7288C30.4652 13.5378 30.5696 13.3202 30.6285 13.0885C30.6873 12.8568 30.6995 12.6158 30.6643 12.3793C30.6291 12.1429 30.5472 11.9158 30.4234 11.7114C30.2995 11.5069 30.1362 11.3291 29.943 11.1884Z" fill="#7D7DFF"/>
<path d="M38.9508 11.1884C38.7643 11.0408 38.5504 10.9315 38.3214 10.8669C38.0925 10.8024 37.853 10.7838 37.6168 10.8123C37.3807 10.8407 37.1525 10.9157 36.9454 11.0328C36.7383 11.15 36.5565 11.3069 36.4105 11.4947L23.7988 27.7097L22.6998 26.3585L20.4297 29.2772L22.4115 31.7454C22.5811 31.9545 22.7953 32.1228 23.0385 32.2382C23.2817 32.3536 23.5477 32.413 23.8168 32.4121C24.0874 32.4108 24.3543 32.3486 24.5976 32.2301C24.8409 32.1116 25.0543 31.9398 25.2221 31.7274L39.3292 13.7108C39.4702 13.5204 39.5723 13.3041 39.6296 13.0742C39.6869 12.8443 39.6983 12.6054 39.6631 12.3711C39.628 12.1368 39.547 11.9118 39.4248 11.7088C39.3025 11.5059 39.1415 11.329 38.9508 11.1884Z" fill="#7D7DFF"/>
<path d="M15.6921 23.5295L18.0163 20.6108L17.656 20.1784C17.5137 19.9813 17.3331 19.8151 17.1249 19.6896C16.9167 19.5642 16.6853 19.4822 16.4447 19.4485C16.204 19.4149 15.9589 19.4302 15.7243 19.4937C15.4898 19.5572 15.2704 19.6676 15.0796 19.818C14.8945 19.9667 14.7406 20.1505 14.6268 20.3588C14.513 20.5672 14.4415 20.796 14.4164 21.032C14.3912 21.2681 14.413 21.5068 14.4805 21.7344C14.5479 21.962 14.6597 22.1741 14.8093 22.3584L15.6921 23.5295Z" fill="#7D7DFF"/>
</svg>
