<svg width="25" height="25" viewBox="0 0 25 25" fill="none" xmlns="http://www.w3.org/2000/svg">
<path d="M12.4993 14.5837C13.6499 14.5837 14.5827 13.6509 14.5827 12.5003C14.5827 11.3497 13.6499 10.417 12.4993 10.417C11.3488 10.417 10.416 11.3497 10.416 12.5003C10.416 13.6509 11.3488 14.5837 12.4993 14.5837Z" fill="#E14192"/>
<path d="M12.4993 7.29167C13.6499 7.29167 14.5827 6.35893 14.5827 5.20833C14.5827 4.05774 13.6499 3.125 12.4993 3.125C11.3488 3.125 10.416 4.05774 10.416 5.20833C10.416 6.35893 11.3488 7.29167 12.4993 7.29167Z" fill="#E14192"/>
<path d="M12.4993 21.8747C13.6499 21.8747 14.5827 20.9419 14.5827 19.7913C14.5827 18.6407 13.6499 17.708 12.4993 17.708C11.3488 17.708 10.416 18.6407 10.416 19.7913C10.416 20.9419 11.3488 21.8747 12.4993 21.8747Z" fill="#E14192"/>
</svg>
