<svg width="26" height="26" viewBox="0 0 26 26" fill="none" xmlns="http://www.w3.org/2000/svg">
<path d="M22.5391 21.0457L18.9634 17.4806C20.1171 16.0108 20.7431 14.1958 20.7407 12.3274C20.7407 10.6634 20.2473 9.03677 19.3228 7.6532C18.3984 6.26964 17.0844 5.19128 15.547 4.55449C14.0097 3.91771 12.3181 3.7511 10.686 4.07573C9.05401 4.40036 7.5549 5.20165 6.37827 6.37827C5.20165 7.5549 4.40036 9.05401 4.07573 10.686C3.7511 12.3181 3.91771 14.0097 4.55449 15.547C5.19128 17.0844 6.26964 18.3984 7.6532 19.3228C9.03677 20.2473 10.6634 20.7407 12.3274 20.7407C14.1958 20.7431 16.0108 20.1171 17.4806 18.9634L21.0457 22.5391C21.1435 22.6377 21.2598 22.7159 21.388 22.7693C21.5161 22.8227 21.6536 22.8502 21.7924 22.8502C21.9312 22.8502 22.0687 22.8227 22.1968 22.7693C22.325 22.7159 22.4413 22.6377 22.5391 22.5391C22.6377 22.4413 22.7159 22.325 22.7693 22.1968C22.8227 22.0687 22.8502 21.9312 22.8502 21.7924C22.8502 21.6536 22.8227 21.5161 22.7693 21.388C22.7159 21.2598 22.6377 21.1435 22.5391 21.0457ZM6.0174 12.3274C6.0174 11.0794 6.38747 9.85943 7.08083 8.82175C7.77418 7.78408 8.75967 6.97531 9.91267 6.49772C11.0657 6.02013 12.3344 5.89517 13.5584 6.13864C14.7824 6.38212 15.9068 6.98309 16.7892 7.86556C17.6717 8.74803 18.2727 9.87236 18.5162 11.0964C18.7596 12.3204 18.6347 13.5891 18.1571 14.7421C17.6795 15.8951 16.8707 16.8806 15.833 17.574C14.7954 18.2673 13.5754 18.6374 12.3274 18.6374C10.6539 18.6374 9.04891 17.9726 7.86556 16.7892C6.6822 15.6059 6.0174 14.0009 6.0174 12.3274Z" fill="#2B2B2B"/>
</svg>
