<svg width="50" height="50" viewBox="0 0 50 50" fill="none" xmlns="http://www.w3.org/2000/svg">
<path d="M41.1257 15.2715L31.8757 4.85487C31.6809 4.63905 31.4431 4.46639 31.1776 4.34798C30.9121 4.22958 30.6247 4.16805 30.334 4.16737H13.6673C12.9751 4.15911 12.2881 4.28728 11.6454 4.54457C11.0028 4.80185 10.4171 5.18321 9.92186 5.66685C9.42661 6.1505 9.03147 6.72697 8.75902 7.36334C8.48657 7.99971 8.34214 8.68351 8.33398 9.3757V40.6257C8.34214 41.3179 8.48657 42.0017 8.75902 42.6381C9.03147 43.2744 9.42661 43.8509 9.92186 44.3345C10.4171 44.8182 11.0028 45.1995 11.6454 45.4568C12.2881 45.7141 12.9751 45.8423 13.6673 45.834H36.334C37.0262 45.8423 37.7132 45.7141 38.3559 45.4568C38.9985 45.1995 39.5842 44.8182 40.0794 44.3345C40.5747 43.8509 40.9698 43.2744 41.2423 42.6381C41.5147 42.0017 41.6592 41.3179 41.6673 40.6257V16.6674C41.666 16.151 41.4729 15.6536 41.1257 15.2715ZM18.7507 25.0007H25.0007C25.5532 25.0007 26.0831 25.2202 26.4738 25.6109C26.8645 26.0016 27.084 26.5315 27.084 27.084C27.084 27.6366 26.8645 28.1665 26.4738 28.5572C26.0831 28.9479 25.5532 29.1674 25.0007 29.1674H18.7507C18.1981 29.1674 17.6682 28.9479 17.2775 28.5572C16.8868 28.1665 16.6673 27.6366 16.6673 27.084C16.6673 26.5315 16.8868 26.0016 17.2775 25.6109C17.6682 25.2202 18.1981 25.0007 18.7507 25.0007ZM31.2507 37.5007H18.7507C18.1981 37.5007 17.6682 37.2812 17.2775 36.8905C16.8868 36.4998 16.6673 35.9699 16.6673 35.4174C16.6673 34.8648 16.8868 34.3349 17.2775 33.9442C17.6682 33.5535 18.1981 33.334 18.7507 33.334H31.2507C31.8032 33.334 32.3331 33.5535 32.7238 33.9442C33.1145 34.3349 33.334 34.8648 33.334 35.4174C33.334 35.9699 33.1145 36.4998 32.7238 36.8905C32.3331 37.2812 31.8032 37.5007 31.2507 37.5007ZM30.6465 16.6674C30.217 16.6251 29.8213 16.4158 29.5446 16.0846C29.268 15.7533 29.1325 15.3267 29.1673 14.8965V8.33403L36.959 16.6674H30.6465Z" fill="#E14192"/>
</svg>
