<svg width="50" height="50" viewBox="0 0 50 50" fill="none" xmlns="http://www.w3.org/2000/svg">
<path d="M41.1247 15.2715L31.8747 4.85487C31.6799 4.63905 31.4421 4.46639 31.1766 4.34798C30.9111 4.22958 30.6237 4.16805 30.333 4.16737H13.6663C12.9742 4.15911 12.2871 4.28728 11.6445 4.54457C11.0018 4.80185 10.4161 5.18321 9.92089 5.66685C9.42563 6.1505 9.0305 6.72697 8.75805 7.36334C8.4856 7.99971 8.34117 8.68351 8.33301 9.3757V40.6257C8.34117 41.3179 8.4856 42.0017 8.75805 42.6381C9.0305 43.2744 9.42563 43.8509 9.92089 44.3345C10.4161 44.8182 11.0018 45.1995 11.6445 45.4568C12.2871 45.7141 12.9742 45.8423 13.6663 45.834H36.333C37.0252 45.8423 37.7122 45.7141 38.3549 45.4568C38.9975 45.1995 39.5832 44.8182 40.0785 44.3345C40.5737 43.8509 40.9689 43.2744 41.2413 42.6381C41.5138 42.0017 41.6582 41.3179 41.6663 40.6257V16.6674C41.665 16.151 41.472 15.6536 41.1247 15.2715ZM18.7497 25.0007H24.9997C25.5522 25.0007 26.0821 25.2202 26.4728 25.6109C26.8635 26.0016 27.083 26.5315 27.083 27.084C27.083 27.6366 26.8635 28.1665 26.4728 28.5572C26.0821 28.9479 25.5522 29.1674 24.9997 29.1674H18.7497C18.1971 29.1674 17.6672 28.9479 17.2765 28.5572C16.8858 28.1665 16.6663 27.6366 16.6663 27.084C16.6663 26.5315 16.8858 26.0016 17.2765 25.6109C17.6672 25.2202 18.1971 25.0007 18.7497 25.0007ZM31.2497 37.5007H18.7497C18.1971 37.5007 17.6672 37.2812 17.2765 36.8905C16.8858 36.4998 16.6663 35.9699 16.6663 35.4174C16.6663 34.8648 16.8858 34.3349 17.2765 33.9442C17.6672 33.5535 18.1971 33.334 18.7497 33.334H31.2497C31.8022 33.334 32.3321 33.5535 32.7228 33.9442C33.1135 34.3349 33.333 34.8648 33.333 35.4174C33.333 35.9699 33.1135 36.4998 32.7228 36.8905C32.3321 37.2812 31.8022 37.5007 31.2497 37.5007ZM30.6455 16.6674C30.216 16.6251 29.8203 16.4158 29.5437 16.0846C29.267 15.7533 29.1315 15.3267 29.1663 14.8965V8.33403L36.958 16.6674H30.6455Z" fill="#706F6F"/>
</svg>
