<svg width="51" height="51" viewBox="0 0 51 51" fill="none" xmlns="http://www.w3.org/2000/svg">
<path d="M40.9488 9.945C40.4637 9.59546 39.903 9.3652 39.3123 9.27289C38.7216 9.18059 38.1174 9.22885 37.5488 9.41375C36.0489 9.83553 34.4954 10.036 32.9375 10.0087C30.6353 9.88379 28.3779 9.32125 26.2863 8.35125C23.7023 7.15622 20.9073 6.48456 18.0625 6.375C11.9213 6.375 9.56254 8.5 9.13754 8.7975C8.93419 8.99681 8.77297 9.23495 8.66346 9.49778C8.55395 9.76061 8.49837 10.0428 8.50004 10.3275V42.5C8.50004 43.0636 8.72392 43.6041 9.12243 44.0026C9.52095 44.4011 10.0615 44.625 10.625 44.625C11.1886 44.625 11.7291 44.4011 12.1276 44.0026C12.5262 43.6041 12.75 43.0636 12.75 42.5V33.3625C14.4433 32.7142 16.2509 32.4178 18.0625 32.4912C20.3648 32.6162 22.6221 33.1787 24.7138 34.1488C27.2977 35.3438 30.0927 36.0154 32.9375 36.125C35.4992 36.2217 38.0476 35.7121 40.375 34.6375C41.0023 34.3428 41.5342 33.8778 41.9099 33.2954C42.2856 32.713 42.4901 32.0367 42.5 31.3438V12.9838C42.4993 12.3908 42.3584 11.8065 42.0888 11.2784C41.8192 10.7503 41.4286 10.2934 40.9488 9.945Z" fill="#E14192"/>
</svg>
