<svg width="52" height="52" viewBox="0 0 52 52" fill="none" xmlns="http://www.w3.org/2000/svg">
<path d="M31.4165 22.3804H45.8682C46.3451 22.3804 46.8025 22.1909 47.1398 21.8536C47.477 21.5164 47.6665 21.059 47.6665 20.582C47.6665 16.2723 45.9544 12.139 42.907 9.09155C39.8595 6.04408 35.7263 4.33203 31.4165 4.33203C30.9395 4.33203 30.4821 4.5215 30.1449 4.85875C29.8076 5.196 29.6182 5.65342 29.6182 6.13036V20.582C29.6182 21.059 29.8076 21.5164 30.1449 21.8536C30.4821 22.1909 30.9395 22.3804 31.4165 22.3804Z" fill="#706F6F"/>
<path d="M45.673 25.9983H28.0147C27.7557 25.9983 27.4993 25.9473 27.2601 25.8482C27.0209 25.7491 26.8036 25.6039 26.6205 25.4208C26.4374 25.2377 26.2922 25.0204 26.1931 24.7812C26.094 24.5419 26.043 24.2856 26.043 24.0266V6.32497C26.0446 6.04393 25.9869 5.76571 25.8734 5.50858C25.76 5.25144 25.5935 5.0212 25.3848 4.83297C25.1761 4.64473 24.9299 4.50276 24.6625 4.41636C24.395 4.32996 24.1124 4.30109 23.833 4.33164C19.7656 4.76353 15.9036 6.33791 12.6934 8.87273C9.48334 11.4075 7.05631 14.7992 5.69301 18.6556C4.32972 22.512 4.08586 26.6755 4.98963 30.6646C5.8934 34.6537 7.90789 38.3056 10.8001 41.1978C13.6924 44.0901 17.3442 46.1045 21.3334 47.0083C25.3225 47.9121 29.486 47.6682 33.3424 46.3049C37.1987 44.9416 40.5904 42.5146 43.1252 39.3045C45.66 36.0944 47.2344 32.2323 47.6663 28.165C47.6904 27.889 47.6567 27.611 47.5674 27.3488C47.4781 27.0866 47.335 26.8459 47.1475 26.642C46.9599 26.4382 46.7319 26.2756 46.4781 26.1648C46.2242 26.054 45.95 25.9973 45.673 25.9983Z" fill="#706F6F"/>
</svg>
