<svg width="42" height="42" viewBox="0 0 42 42" fill="none" xmlns="http://www.w3.org/2000/svg">
<circle cx="21" cy="21" r="21" fill="#706F6F"/>
<path d="M20.9999 19.1972C22.093 19.1972 23.1614 18.8731 24.0702 18.2658C24.979 17.6586 25.6873 16.7955 26.1056 15.7857C26.5239 14.7759 26.6333 13.6647 26.4201 12.5927C26.2068 11.5207 25.6805 10.536 24.9076 9.76315C24.1348 8.99028 23.1501 8.46395 22.0781 8.25072C21.0061 8.03749 19.8949 8.14693 18.8851 8.5652C17.8753 8.98347 17.0122 9.69179 16.405 10.6006C15.7977 11.5094 15.4736 12.5778 15.4736 13.6708C15.4736 15.1365 16.0559 16.5422 17.0923 17.5785C18.1286 18.6149 19.5343 19.1972 20.9999 19.1972Z" fill="white"/>
<path d="M29.2896 33.0136C29.656 33.0136 30.0075 32.868 30.2665 32.6089C30.5256 32.3498 30.6712 31.9984 30.6712 31.632C30.6712 29.0671 29.6523 26.6072 27.8386 24.7935C26.0249 22.9798 23.5651 21.9609 21.0002 21.9609C18.4352 21.9609 15.9754 22.9798 14.1617 24.7935C12.348 26.6072 11.3291 29.0671 11.3291 31.632C11.3291 31.9984 11.4747 32.3498 11.7338 32.6089C11.9929 32.868 12.3443 33.0136 12.7107 33.0136H29.2896Z" fill="white"/>
</svg>
