<svg width="50" height="50" viewBox="0 0 50 50" fill="none" xmlns="http://www.w3.org/2000/svg">
<path d="M43.7497 12.4997H41.6663V10.4163C41.6663 9.86381 41.4468 9.3339 41.0561 8.9432C40.6654 8.5525 40.1355 8.33301 39.583 8.33301C39.0305 8.33301 38.5006 8.5525 38.1099 8.9432C37.7192 9.3339 37.4997 9.86381 37.4997 10.4163V12.4997H35.4163C34.8638 12.4997 34.3339 12.7192 33.9432 13.1099C33.5525 13.5006 33.333 14.0305 33.333 14.583C33.333 15.1355 33.5525 15.6654 33.9432 16.0561C34.3339 16.4468 34.8638 16.6663 35.4163 16.6663H37.4997V18.7497C37.4997 19.3022 37.7192 19.8321 38.1099 20.2228C38.5006 20.6135 39.0305 20.833 39.583 20.833C40.1355 20.833 40.6654 20.6135 41.0561 20.2228C41.4468 19.8321 41.6663 19.3022 41.6663 18.7497V16.6663H43.7497C44.3022 16.6663 44.8321 16.4468 45.2228 16.0561C45.6135 15.6654 45.833 15.1355 45.833 14.583C45.833 14.0305 45.6135 13.5006 45.2228 13.1099C44.8321 12.7192 44.3022 12.4997 43.7497 12.4997Z" fill="#706F6F"/>
<path d="M20.8333 22.9157C22.4815 22.9157 24.0927 22.427 25.4631 21.5113C26.8335 20.5956 27.9016 19.2941 28.5323 17.7714C29.1631 16.2487 29.3281 14.5731 29.0065 12.9566C28.685 11.3401 27.8913 9.85524 26.7259 8.6898C25.5605 7.52437 24.0756 6.73069 22.4591 6.40915C20.8426 6.08761 19.167 6.25263 17.6443 6.88336C16.1216 7.51409 14.8201 8.5822 13.9044 9.95261C12.9887 11.323 12.5 12.9342 12.5 14.5824C12.5 16.7925 13.378 18.9121 14.9408 20.4749C16.5036 22.0377 18.6232 22.9157 20.8333 22.9157Z" fill="#706F6F"/>
<path d="M33.3333 43.7497C33.8859 43.7497 34.4158 43.5302 34.8065 43.1395C35.1972 42.7488 35.4167 42.2189 35.4167 41.6663C35.4167 37.7986 33.8802 34.0893 31.1453 31.3544C28.4104 28.6195 24.7011 27.083 20.8333 27.083C16.9656 27.083 13.2563 28.6195 10.5214 31.3544C7.78645 34.0893 6.25 37.7986 6.25 41.6663C6.25 42.2189 6.46949 42.7488 6.86019 43.1395C7.25089 43.5302 7.7808 43.7497 8.33333 43.7497" fill="#706F6F"/>
</svg>
