<svg width="27" height="21" viewBox="0 0 27 21" fill="none" xmlns="http://www.w3.org/2000/svg">
<path d="M10.1209 20.4298C9.89674 20.4291 9.6751 20.3822 9.46977 20.2922C9.26444 20.2022 9.07982 20.071 8.92737 19.9066L0.981273 11.4536C0.684237 11.1371 0.525116 10.7155 0.538914 10.2816C0.552712 9.84777 0.738299 9.43715 1.05485 9.14011C1.3714 8.84308 1.79298 8.68395 2.22685 8.69775C2.66072 8.71155 3.07134 8.89714 3.36837 9.21369L10.1046 16.3913L23.8549 1.34934C23.9945 1.17557 24.1681 1.03217 24.365 0.927938C24.562 0.823704 24.7782 0.760841 25.0004 0.743209C25.2225 0.725576 25.446 0.753547 25.6569 0.825403C25.8679 0.897259 26.0619 1.01148 26.2271 1.16106C26.3923 1.31064 26.5252 1.49241 26.6176 1.69521C26.71 1.89801 26.76 2.11756 26.7644 2.34037C26.7689 2.56319 26.7277 2.78456 26.6435 2.99089C26.5593 3.19723 26.4338 3.38417 26.2747 3.54024L11.3308 19.8902C11.1798 20.0576 10.9958 20.1919 10.7904 20.2848C10.585 20.3776 10.3627 20.427 10.1373 20.4298H10.1209Z" fill="white"/>
</svg>
