<svg width="25" height="25" viewBox="0 0 25 25" fill="none" xmlns="http://www.w3.org/2000/svg">
<path d="M21.3321 6.09647H16.2529V4.40003C16.2291 3.74971 15.9484 3.13538 15.4723 2.6917C14.9963 2.24801 14.3637 2.01119 13.7133 2.03314H10.6658C10.0154 2.01119 9.3829 2.24801 8.90685 2.6917C8.43079 3.13538 8.15008 3.74971 8.12625 4.40003V6.09647H3.04708C2.77767 6.09647 2.51929 6.2035 2.32878 6.394C2.13827 6.58451 2.03125 6.84289 2.03125 7.11231C2.03125 7.38172 2.13827 7.6401 2.32878 7.83061C2.51929 8.02111 2.77767 8.12814 3.04708 8.12814H4.06292V19.3023C4.06292 20.1106 4.38399 20.8857 4.95551 21.4572C5.52703 22.0287 6.30217 22.3498 7.11042 22.3498H17.2687C18.077 22.3498 18.8521 22.0287 19.4237 21.4572C19.9952 20.8857 20.3162 20.1106 20.3162 19.3023V8.12814H21.3321C21.6015 8.12814 21.8599 8.02111 22.0504 7.83061C22.2409 7.6401 22.3479 7.38172 22.3479 7.11231C22.3479 6.84289 22.2409 6.58451 22.0504 6.394C21.8599 6.2035 21.6015 6.09647 21.3321 6.09647ZM10.1579 4.40003C10.1579 4.2375 10.3712 4.06481 10.6658 4.06481H13.7133C14.0079 4.06481 14.2212 4.2375 14.2212 4.40003V6.09647H10.1579V4.40003ZM18.2846 19.3023C18.2846 19.5717 18.1776 19.8301 17.9871 20.0206C17.7965 20.2111 17.5382 20.3181 17.2687 20.3181H7.11042C6.841 20.3181 6.58262 20.2111 6.39211 20.0206C6.20161 19.8301 6.09458 19.5717 6.09458 19.3023V8.12814H18.2846V19.3023Z" fill="#706F6F"/>
<path d="M9.14279 17.2693C9.4122 17.2693 9.67058 17.1623 9.86109 16.9718C10.0516 16.7813 10.1586 16.5229 10.1586 16.2535V12.1901C10.1586 11.9207 10.0516 11.6624 9.86109 11.4718C9.67058 11.2813 9.4122 11.1743 9.14279 11.1743C8.87337 11.1743 8.61499 11.2813 8.42448 11.4718C8.23398 11.6624 8.12695 11.9207 8.12695 12.1901V16.2535C8.12695 16.5229 8.23398 16.7813 8.42448 16.9718C8.61499 17.1623 8.87337 17.2693 9.14279 17.2693Z" fill="#706F6F"/>
<path d="M15.2365 17.2693C15.506 17.2693 15.7643 17.1623 15.9548 16.9718C16.1453 16.7813 16.2524 16.5229 16.2524 16.2535V12.1901C16.2524 11.9207 16.1453 11.6624 15.9548 11.4718C15.7643 11.2813 15.506 11.1743 15.2365 11.1743C14.9671 11.1743 14.7087 11.2813 14.5182 11.4718C14.3277 11.6624 14.2207 11.9207 14.2207 12.1901V16.2535C14.2207 16.5229 14.3277 16.7813 14.5182 16.9718C14.7087 17.1623 14.9671 17.2693 15.2365 17.2693Z" fill="#706F6F"/>
</svg>
