<svg width="40" height="46" viewBox="0 0 40 46" fill="none" xmlns="http://www.w3.org/2000/svg">
<path d="M22.6664 42.833L22.6664 9.22968L35.0197 19.5147C35.5983 19.9956 36.3443 20.227 37.0935 20.1579C37.8427 20.0888 38.5338 19.725 39.0147 19.1463C39.4956 18.5677 39.727 17.8218 39.6579 17.0726C39.5889 16.3234 39.225 15.6323 38.6464 15.1513L21.6464 0.984674C21.5112 0.889362 21.3691 0.804132 21.2214 0.729673C21.0797 0.729673 20.9947 0.729674 20.853 0.531341C20.5282 0.402916 20.1824 0.335673 19.833 0.333007C19.4837 0.335673 19.1379 0.402916 18.813 0.531341C18.6714 0.531341 18.5864 0.53134 18.4447 0.729673C18.297 0.804132 18.1549 0.889362 18.0197 0.984674L1.01969 15.1513C0.699863 15.4177 0.442649 15.7513 0.266357 16.1284C0.0900643 16.5055 -0.000981102 16.9168 -0.000305919 17.333C-0.00159913 17.995 0.228965 18.6366 0.651359 19.1463C0.889217 19.4332 1.18134 19.6704 1.51099 19.8442C1.84064 20.0181 2.20134 20.1252 2.57244 20.1594C2.94354 20.1936 3.31775 20.1542 3.67363 20.0436C4.0295 19.933 4.36006 19.7533 4.64636 19.5147L16.9997 9.22968L16.9997 42.833C16.9997 43.5845 17.2982 44.3051 17.8296 44.8365C18.3609 45.3678 19.0816 45.6664 19.833 45.6664C20.5845 45.6664 21.3051 45.3678 21.8365 44.8365C22.3679 44.3051 22.6664 43.5845 22.6664 42.833Z" fill="#7D7DFF"/>
</svg>
